<?xml version="1.0" encoding="utf-8"?>
<!-- Generator: Adobe Illustrator 16.0.0, SVG Export Plug-In . SVG Version: 6.00 Build 0)  -->
<!DOCTYPE svg PUBLIC "-//W3C//DTD SVG 1.1//EN" "http://www.w3.org/Graphics/SVG/1.1/DTD/svg11.dtd">
<svg version="1.1" id="Layer_1" xmlns="http://www.w3.org/2000/svg" xmlns:xlink="http://www.w3.org/1999/xlink" x="0px" y="0px"
	width="100%" height="100%" viewBox="0 0 133.482 133.483" enable-background="new 0 0 133.482 133.483"
	 xml:space="preserve">
<g>
	<g>
		<g>
			<rect fill="#C6110C" width="133.482" height="133.483"/>
			<g>
				<g>
					<path fill="#FFFFFF" d="M27.702,62.856c-1.114,0-1.671,0.513-1.671,1.538h-0.268v-1.003c0-0.713,0.379-1.07,1.137-1.07h6.219
						v0.535h-3.01v8.291h-1.203v-8.291H27.702z"/>
					<path fill="#FFFFFF" d="M41.896,70.86c-0.353-0.281-0.742-0.787-1.171-1.518l-1.337-2.273h-0.937v4.078h-1.203v-7.221
						c0-0.455-0.063-0.791-0.188-1.01s-0.374-0.328-0.749-0.328h-0.267v-0.268h3.477c0.847,0,1.616,0.168,2.307,0.502
						s1.036,0.97,1.036,1.905c0,1.187-0.713,1.944-2.14,2.273l1.404,2.341c0.33,0.553,0.626,0.938,0.89,1.156
						c0.263,0.219,0.568,0.346,0.916,0.381v0.268c-0.08,0.035-0.194,0.066-0.342,0.094c-0.146,0.027-0.3,0.041-0.461,0.041
						C42.66,71.282,42.247,71.142,41.896,70.86z M40.357,66.4c0.325-0.134,0.602-0.343,0.829-0.628
						c0.228-0.286,0.341-0.633,0.341-1.044c0-0.437-0.113-0.8-0.341-1.089c-0.228-0.29-0.504-0.504-0.829-0.643
						c-0.326-0.138-0.627-0.207-0.902-0.207c-0.313,0-0.646,0.045-1.004,0.133v3.545c0.357,0.088,0.691,0.133,1.004,0.133
						C39.73,66.601,40.031,66.534,40.357,66.4z"/>
					<path fill="#FFFFFF" d="M48.933,70.847c-0.499-0.289-0.854-0.72-1.063-1.291c-0.21-0.57-0.314-1.31-0.314-2.219v-3.41
						c0-0.455-0.063-0.791-0.188-1.01c-0.125-0.219-0.375-0.328-0.749-0.328h-0.268v-0.268h1.204c0.33,0,0.577,0.043,0.742,0.128
						c0.164,0.084,0.283,0.238,0.354,0.461c0.071,0.224,0.106,0.562,0.106,1.017v3.812c0,0.989,0.183,1.738,0.549,2.246
						c0.365,0.509,0.972,0.763,1.818,0.763c0.678,0,1.215-0.121,1.611-0.361s0.68-0.606,0.85-1.097
						c0.169-0.49,0.254-1.142,0.254-1.952v-5.016h0.534v5.016c0,0.927-0.098,1.674-0.294,2.24c-0.195,0.565-0.541,0.991-1.036,1.276
						c-0.494,0.286-1.188,0.429-2.079,0.429C50.109,71.282,49.432,71.138,48.933,70.847z"/>
					<path fill="#FFFFFF" d="M59.2,62.917c-0.125-0.219-0.374-0.328-0.749-0.328h-0.267v-0.268h5.336
						c0.757,0,1.136,0.357,1.136,1.07v1.003H64.39c0-1.025-0.558-1.538-1.672-1.538h-2.127V66.4h3.022v0.535h-3.022v4.212h-1.203
						v-7.221C59.388,63.472,59.325,63.136,59.2,62.917z"/>
					<path fill="#FFFFFF" d="M70.27,70.847c-0.499-0.289-0.854-0.72-1.063-1.291c-0.21-0.57-0.314-1.31-0.314-2.219v-3.41
						c0-0.455-0.063-0.791-0.188-1.01s-0.374-0.328-0.749-0.328h-0.268v-0.268h1.204c0.33,0,0.577,0.043,0.742,0.128
						c0.165,0.084,0.282,0.238,0.354,0.461c0.07,0.224,0.106,0.562,0.106,1.017v3.812c0,0.989,0.183,1.738,0.549,2.246
						c0.365,0.509,0.972,0.763,1.818,0.763c0.678,0,1.215-0.121,1.611-0.361s0.68-0.606,0.85-1.097
						c0.169-0.49,0.253-1.142,0.253-1.952v-5.016h0.536v5.016c0,0.927-0.099,1.674-0.294,2.24c-0.197,0.565-0.542,0.991-1.037,1.276
						c-0.494,0.286-1.188,0.429-2.079,0.429C71.447,71.282,70.77,71.138,70.27,70.847z"/>
					<path fill="#FFFFFF" d="M80.537,62.917c-0.125-0.219-0.375-0.328-0.749-0.328h-0.268v-0.268h1.203
						c0.33,0,0.577,0.043,0.743,0.128c0.164,0.084,0.283,0.238,0.354,0.461c0.071,0.224,0.106,0.562,0.106,1.017v6.686h4.747v0.535
						h-5.951v-7.221C80.724,63.472,80.661,63.136,80.537,62.917z"/>
					<path fill="#FFFFFF" d="M90.297,62.917c-0.125-0.219-0.375-0.328-0.749-0.328H89.28v-0.268h1.203
						c0.33,0,0.577,0.043,0.742,0.128c0.165,0.084,0.282,0.238,0.354,0.461c0.072,0.224,0.107,0.562,0.107,1.017v6.686h4.748v0.535
						h-5.952v-7.221C90.483,63.472,90.422,63.136,90.297,62.917z"/>
					<path fill="#FFFFFF" d="M101.052,70.8c-0.628-0.41-1.112-0.971-1.451-1.685c-0.338-0.714-0.508-1.507-0.508-2.38
						c0-0.875,0.17-1.668,0.508-2.381c0.339-0.713,0.823-1.275,1.451-1.686c0.629-0.41,1.357-0.615,2.187-0.615
						s1.559,0.205,2.187,0.615c0.629,0.41,1.112,0.973,1.451,1.686s0.508,1.506,0.508,2.381c0,0.873-0.169,1.666-0.508,2.38
						s-0.822,1.274-1.451,1.685c-0.628,0.41-1.357,0.615-2.187,0.615S101.681,71.21,101.052,70.8z M104.742,70.372
						c0.425-0.339,0.747-0.818,0.97-1.438c0.224-0.619,0.335-1.353,0.335-2.199c0-0.848-0.111-1.58-0.335-2.2
						c-0.223-0.62-0.545-1.099-0.97-1.438c-0.423-0.338-0.925-0.508-1.504-0.508s-1.081,0.17-1.504,0.508
						c-0.424,0.34-0.747,0.818-0.97,1.438s-0.335,1.353-0.335,2.2c0,0.847,0.112,1.58,0.335,2.199s0.546,1.099,0.97,1.438
						c0.423,0.34,0.925,0.508,1.504,0.508S104.319,70.712,104.742,70.372z"/>
				</g>
				<g>
					<path fill="#FFFFFF" d="M37.863,76.804c-0.085-0.146-0.252-0.221-0.504-0.221h-0.18v-0.18h2.337
						c0.575,0,1.094,0.123,1.556,0.369c0.461,0.246,0.691,0.723,0.691,1.43c0,0.467-0.119,0.826-0.359,1.078
						c-0.239,0.252-0.508,0.42-0.805,0.504c-0.296,0.084-0.567,0.125-0.813,0.125h-0.988v2.428h-0.81v-4.854
						C37.988,77.177,37.946,76.951,37.863,76.804z M40.083,79.446c0.216-0.099,0.4-0.256,0.553-0.472
						c0.153-0.216,0.229-0.489,0.229-0.817c0-0.33-0.076-0.603-0.229-0.818c-0.152-0.216-0.337-0.373-0.553-0.473
						c-0.216-0.099-0.42-0.148-0.611-0.148c-0.21,0-0.435,0.031-0.674,0.09v2.697c0.239,0.061,0.464,0.09,0.674,0.09
						C39.663,79.595,39.867,79.546,40.083,79.446z"/>
					<path fill="#FFFFFF" d="M45.532,82.306c-0.197-0.081-0.367-0.215-0.508-0.4s-0.211-0.432-0.211-0.737
						c0-0.455,0.211-0.778,0.634-0.971s0.976-0.288,1.658-0.288h0.27c0-0.587-0.08-0.988-0.242-1.204s-0.396-0.323-0.701-0.323
						c-0.27,0-0.485,0.057-0.646,0.17c-0.162,0.114-0.276,0.313-0.343,0.594h-0.404c0-0.204,0.013-0.363,0.036-0.48
						c0.024-0.117,0.087-0.227,0.189-0.328c0.107-0.108,0.286-0.188,0.534-0.238s0.521-0.076,0.813-0.076
						c0.485,0,0.869,0.13,1.151,0.391c0.281,0.26,0.422,0.76,0.422,1.496v2.428h-0.449l-0.314-0.404h-0.046
						c-0.107,0.138-0.267,0.254-0.476,0.35c-0.21,0.096-0.471,0.145-0.782,0.145C45.926,82.427,45.73,82.386,45.532,82.306z
						 M47.016,81.878c0.132-0.096,0.252-0.227,0.359-0.395v-1.215h-0.27c-0.443,0-0.794,0.084-1.052,0.248
						c-0.257,0.164-0.386,0.382-0.386,0.651c0,0.276,0.082,0.487,0.247,0.634c0.164,0.146,0.367,0.221,0.606,0.221
						C46.72,82.022,46.884,81.975,47.016,81.878z"/>
					<path fill="#FFFFFF" d="M52.402,82.14c-0.191-0.192-0.287-0.486-0.287-0.881v-2.787h-0.63v-0.359h0.63v-0.81l0.449-0.539h0.359
						v1.349h1.079v0.359h-1.079v2.787c0,0.539,0.21,0.809,0.63,0.809c0.144,0,0.265-0.015,0.363-0.045
						c0.1-0.03,0.203-0.075,0.311-0.135l0.09,0.18c-0.138,0.103-0.291,0.188-0.458,0.256c-0.168,0.068-0.391,0.104-0.666,0.104
						C52.857,82.427,52.595,82.331,52.402,82.14z"/>
					<path fill="#FFFFFF" d="M57.502,78.511c-0.084-0.146-0.252-0.219-0.504-0.219h-0.18v-0.18h0.809
						c0.222,0,0.389,0.028,0.499,0.084c0.111,0.058,0.19,0.161,0.239,0.311c0.048,0.15,0.071,0.378,0.071,0.684v3.146h-0.81V79.19
						C57.627,78.885,57.586,78.659,57.502,78.511z M57.614,77.401c-0.1-0.113-0.148-0.249-0.148-0.404
						c0-0.126,0.037-0.225,0.112-0.297s0.176-0.107,0.301-0.107c0.138,0,0.256,0.057,0.355,0.171
						c0.099,0.113,0.148,0.249,0.148,0.403c0,0.127-0.038,0.226-0.112,0.297c-0.075,0.072-0.176,0.108-0.302,0.108
						C57.831,77.572,57.713,77.516,57.614,77.401z"/>
					<path fill="#FFFFFF" d="M62.232,82.067c-0.103-0.102-0.165-0.217-0.189-0.347c-0.023-0.128-0.036-0.327-0.036-0.597h0.18
						c0.055,0.299,0.185,0.531,0.392,0.696s0.496,0.247,0.867,0.247c0.33,0,0.577-0.057,0.742-0.171
						c0.164-0.114,0.247-0.267,0.247-0.458c0-0.174-0.064-0.324-0.193-0.45s-0.334-0.245-0.616-0.36l-0.539-0.224
						c-0.359-0.144-0.629-0.312-0.809-0.504c-0.18-0.191-0.271-0.429-0.271-0.71c0-0.365,0.139-0.652,0.414-0.859
						c0.275-0.205,0.632-0.309,1.069-0.309c0.659,0,1.109,0.119,1.349,0.359c0.102,0.102,0.165,0.215,0.189,0.342
						c0.023,0.125,0.035,0.326,0.035,0.602h-0.18c-0.048-0.299-0.174-0.531-0.378-0.697c-0.203-0.164-0.482-0.246-0.835-0.246
						c-0.282,0-0.502,0.059-0.661,0.175s-0.238,0.269-0.238,0.454c0,0.312,0.24,0.566,0.719,0.764L64.03,80
						c0.407,0.167,0.704,0.346,0.89,0.534c0.186,0.189,0.279,0.43,0.279,0.725c0,0.365-0.147,0.65-0.441,0.857
						c-0.293,0.207-0.671,0.311-1.133,0.311C62.937,82.427,62.472,82.308,62.232,82.067z"/>
					<path fill="#FFFFFF" d="M68.751,82.067c-0.102-0.102-0.165-0.217-0.188-0.347c-0.023-0.128-0.036-0.327-0.036-0.597h0.18
						c0.054,0.299,0.185,0.531,0.392,0.696s0.496,0.247,0.867,0.247c0.329,0,0.577-0.057,0.741-0.171
						c0.165-0.114,0.248-0.267,0.248-0.458c0-0.174-0.065-0.324-0.193-0.45c-0.13-0.126-0.335-0.245-0.616-0.36l-0.539-0.224
						c-0.36-0.144-0.629-0.312-0.81-0.504c-0.18-0.191-0.27-0.429-0.27-0.71c0-0.365,0.139-0.652,0.414-0.859
						c0.275-0.205,0.632-0.309,1.069-0.309c0.659,0,1.109,0.119,1.348,0.359c0.103,0.102,0.166,0.215,0.189,0.342
						c0.024,0.125,0.036,0.326,0.036,0.602h-0.18c-0.049-0.299-0.174-0.531-0.378-0.697c-0.203-0.164-0.482-0.246-0.836-0.246
						c-0.282,0-0.502,0.059-0.661,0.175c-0.158,0.116-0.237,0.269-0.237,0.454c0,0.312,0.239,0.566,0.719,0.764L70.549,80
						c0.408,0.167,0.704,0.346,0.891,0.534c0.186,0.189,0.278,0.43,0.278,0.725c0,0.365-0.146,0.65-0.44,0.857
						s-0.672,0.311-1.133,0.311C69.455,82.427,68.99,82.308,68.751,82.067z"/>
					<path fill="#FFFFFF" d="M75.863,82.135c-0.281-0.194-0.494-0.458-0.639-0.791c-0.144-0.333-0.214-0.706-0.214-1.119
						c0-0.407,0.07-0.779,0.214-1.115c0.145-0.335,0.353-0.601,0.625-0.796c0.273-0.194,0.592-0.291,0.959-0.291
						c0.604,0,1.055,0.168,1.352,0.508c0.297,0.338,0.445,0.828,0.445,1.47l-0.018,0.359h-2.725c0,0.503,0.108,0.913,0.324,1.231
						c0.216,0.317,0.513,0.477,0.89,0.477c0.282,0,0.52-0.06,0.715-0.18c0.194-0.12,0.376-0.301,0.545-0.539l0.179,0.135
						c-0.198,0.329-0.428,0.568-0.692,0.719c-0.264,0.149-0.572,0.225-0.926,0.225C76.489,82.427,76.146,82.329,75.863,82.135z
						 M77.518,78.796c-0.156-0.277-0.393-0.414-0.709-0.414c-0.181,0-0.343,0.07-0.486,0.211c-0.145,0.141-0.257,0.334-0.337,0.58
						c-0.081,0.246-0.122,0.521-0.122,0.827h1.888C77.751,79.472,77.674,79.071,77.518,78.796z"/>
					<path fill="#FFFFFF" d="M82.096,78.511c-0.084-0.146-0.252-0.219-0.504-0.219h-0.09v-0.18h0.72
						c0.228,0,0.399,0.031,0.517,0.094s0.199,0.166,0.247,0.311h0.045c0.108-0.139,0.253-0.256,0.437-0.352
						c0.183-0.096,0.396-0.143,0.643-0.143c0.239,0,0.419,0.045,0.54,0.135c0.101,0.077,0.206,0.212,0.314,0.404l-0.36,0.27
						c-0.066-0.09-0.162-0.158-0.288-0.203c-0.126-0.044-0.27-0.066-0.431-0.066c-0.181,0-0.345,0.04-0.495,0.121
						s-0.27,0.19-0.359,0.328v3.326h-0.809V79.19C82.222,78.885,82.179,78.659,82.096,78.511z"/>
					<path fill="#FFFFFF" d="M88.237,78.511c-0.084-0.146-0.252-0.219-0.504-0.219h-0.18v-0.18h0.809
						c0.222,0,0.389,0.028,0.499,0.084c0.111,0.058,0.19,0.161,0.238,0.311c0.048,0.15,0.072,0.378,0.072,0.684v3.146h-0.81V79.19
						C88.362,78.885,88.32,78.659,88.237,78.511z M88.35,77.401c-0.099-0.113-0.148-0.249-0.148-0.404
						c0-0.126,0.037-0.225,0.112-0.297s0.175-0.107,0.301-0.107c0.139,0,0.257,0.057,0.355,0.171
						c0.099,0.113,0.149,0.249,0.149,0.403c0,0.127-0.038,0.226-0.114,0.297c-0.075,0.072-0.175,0.108-0.301,0.108
						C88.566,77.572,88.449,77.516,88.35,77.401z"/>
					<path fill="#FFFFFF" d="M93.562,82.135c-0.282-0.194-0.495-0.458-0.639-0.791s-0.216-0.706-0.216-1.119
						c0-0.407,0.072-0.779,0.216-1.115c0.144-0.335,0.353-0.601,0.624-0.796c0.272-0.194,0.593-0.291,0.958-0.291
						c0.605,0,1.057,0.168,1.353,0.508c0.297,0.338,0.445,0.828,0.445,1.47l-0.019,0.359h-2.723c0,0.503,0.107,0.913,0.323,1.231
						c0.215,0.317,0.512,0.477,0.889,0.477c0.283,0,0.521-0.06,0.715-0.18c0.195-0.12,0.377-0.301,0.545-0.539l0.18,0.135
						c-0.197,0.329-0.429,0.568-0.692,0.719c-0.264,0.149-0.572,0.225-0.926,0.225C94.188,82.427,93.843,82.329,93.562,82.135z
						 M95.215,78.796c-0.155-0.277-0.393-0.414-0.71-0.414c-0.18,0-0.342,0.07-0.485,0.211s-0.256,0.334-0.337,0.58
						c-0.082,0.246-0.121,0.521-0.121,0.827h1.888C95.449,79.472,95.371,79.071,95.215,78.796z"/>
				</g>
				<g>
					<path fill="#FFFFFF" d="M57.992,51.419c-0.757,0-1.136,0.349-1.136,1.046h-0.182v-0.683c0-0.484,0.257-0.727,0.772-0.727h4.225
						v0.363h-2.045v5.633H58.81v-5.633H57.992z"/>
					<path fill="#FFFFFF" d="M64.434,51.46c-0.085-0.148-0.255-0.223-0.509-0.223h-0.182v-0.182h0.817
						c0.225,0,0.393,0.029,0.504,0.086c0.112,0.059,0.192,0.162,0.241,0.314c0.048,0.151,0.073,0.381,0.073,0.689v1.637h2.725
						v-2.727h0.818v4.906c0,0.309,0.042,0.537,0.127,0.686s0.254,0.223,0.509,0.223h0.182v0.182h-0.817
						c-0.225,0-0.393-0.028-0.505-0.086c-0.111-0.058-0.192-0.162-0.24-0.313c-0.049-0.152-0.073-0.383-0.073-0.691v-1.816h-2.725
						v2.906h-0.818v-4.906C64.561,51.837,64.518,51.608,64.434,51.46z"/>
					<path fill="#FFFFFF" d="M72.546,51.46c-0.084-0.148-0.254-0.223-0.509-0.223h-0.182v-0.182h3.87
						c0.515,0,0.773,0.242,0.773,0.727v0.683h-0.183c0-0.697-0.378-1.046-1.135-1.046h-1.69v2.363h2.453v0.363h-2.453v2.543h1.59
						c0.418,0,0.745-0.075,0.981-0.227c0.235-0.151,0.424-0.408,0.563-0.772l0.182,0.046l-0.318,0.863
						c-0.109,0.303-0.336,0.453-0.682,0.453h-3.134v-4.906C72.674,51.837,72.631,51.608,72.546,51.46z"/>
				</g>
				<g>
					<g>
						<rect x="25.482" y="53.11" fill="#FFFFFF" width="28.257" height="0.535"/>
					</g>
					<g>
						<rect x="25.482" y="54.337" fill="#FFFFFF" width="28.257" height="1.523"/>
					</g>
				</g>
				<g>
					<g>
						<rect x="79.743" y="53.11" fill="#FFFFFF" width="28.256" height="0.535"/>
					</g>
					<g>
						<rect x="79.743" y="54.337" fill="#FFFFFF" width="28.256" height="1.523"/>
					</g>
				</g>
				<g>
					<rect x="25.482" y="79.635" fill="#FFFFFF" width="7.653" height="0.535"/>
				</g>
				<g>
					<rect x="100.346" y="79.635" fill="#FFFFFF" width="7.653" height="0.535"/>
				</g>
			</g>
		</g>
	</g>
	<g>
		<g>
			<g>
				<g>
					<path fill="#FFFFFF" d="M27.921,62.862c-1.114,0-1.671,0.513-1.671,1.538h-0.268v-1.003c0-0.713,0.379-1.07,1.137-1.07h6.219
						v0.535h-3.01v8.291h-1.203v-8.291H27.921z"/>
					<path fill="#FFFFFF" d="M42.114,70.866c-0.353-0.281-0.742-0.787-1.171-1.518l-1.337-2.273H38.67v4.078h-1.203v-7.221
						c0-0.455-0.063-0.791-0.188-1.01s-0.374-0.328-0.749-0.328h-0.267v-0.268h3.477c0.847,0,1.616,0.168,2.307,0.502
						s1.036,0.97,1.036,1.905c0,1.187-0.713,1.944-2.14,2.273l1.404,2.341c0.33,0.553,0.626,0.938,0.89,1.156
						c0.263,0.219,0.568,0.346,0.916,0.381v0.268c-0.08,0.035-0.194,0.066-0.342,0.094c-0.146,0.027-0.3,0.041-0.461,0.041
						C42.879,71.288,42.466,71.147,42.114,70.866z M40.576,66.406c0.325-0.134,0.602-0.343,0.829-0.628
						c0.228-0.286,0.341-0.633,0.341-1.044c0-0.437-0.113-0.8-0.341-1.089c-0.228-0.29-0.504-0.504-0.829-0.643
						c-0.326-0.138-0.627-0.207-0.902-0.207c-0.313,0-0.646,0.045-1.004,0.133v3.545c0.357,0.088,0.691,0.133,1.004,0.133
						C39.949,66.606,40.25,66.54,40.576,66.406z"/>
					<path fill="#FFFFFF" d="M49.151,70.853c-0.499-0.289-0.854-0.72-1.063-1.291c-0.21-0.57-0.314-1.31-0.314-2.219v-3.41
						c0-0.455-0.063-0.791-0.188-1.01c-0.125-0.219-0.375-0.328-0.749-0.328H46.57v-0.268h1.204c0.33,0,0.577,0.043,0.742,0.128
						c0.164,0.084,0.283,0.238,0.354,0.461c0.071,0.224,0.106,0.562,0.106,1.017v3.812c0,0.989,0.183,1.738,0.549,2.246
						c0.365,0.509,0.972,0.763,1.818,0.763c0.678,0,1.215-0.121,1.611-0.361s0.68-0.606,0.85-1.097
						c0.169-0.49,0.254-1.142,0.254-1.952v-5.016h0.534v5.016c0,0.927-0.098,1.674-0.294,2.24c-0.195,0.565-0.541,0.991-1.036,1.276
						c-0.494,0.286-1.188,0.429-2.079,0.429C50.328,71.288,49.65,71.144,49.151,70.853z"/>
					<path fill="#FFFFFF" d="M59.419,62.923c-0.125-0.219-0.374-0.328-0.749-0.328h-0.267v-0.268h5.336
						c0.757,0,1.136,0.357,1.136,1.07V64.4h-0.267c0-1.025-0.558-1.538-1.672-1.538H60.81v3.544h3.022v0.535H60.81v4.212h-1.203
						v-7.221C59.606,63.478,59.544,63.142,59.419,62.923z"/>
					<path fill="#FFFFFF" d="M70.488,70.853c-0.499-0.289-0.854-0.72-1.063-1.291c-0.21-0.57-0.314-1.31-0.314-2.219v-3.41
						c0-0.455-0.063-0.791-0.188-1.01s-0.374-0.328-0.749-0.328h-0.268v-0.268h1.204c0.33,0,0.577,0.043,0.742,0.128
						c0.165,0.084,0.282,0.238,0.354,0.461c0.07,0.224,0.106,0.562,0.106,1.017v3.812c0,0.989,0.183,1.738,0.549,2.246
						c0.365,0.509,0.972,0.763,1.818,0.763c0.678,0,1.215-0.121,1.611-0.361s0.68-0.606,0.85-1.097
						c0.169-0.49,0.253-1.142,0.253-1.952v-5.016h0.536v5.016c0,0.927-0.099,1.674-0.294,2.24c-0.197,0.565-0.542,0.991-1.037,1.276
						c-0.494,0.286-1.188,0.429-2.079,0.429C71.666,71.288,70.988,71.144,70.488,70.853z"/>
					<path fill="#FFFFFF" d="M80.756,62.923c-0.125-0.219-0.375-0.328-0.749-0.328h-0.268v-0.268h1.203
						c0.33,0,0.577,0.043,0.743,0.128c0.164,0.084,0.283,0.238,0.354,0.461c0.071,0.224,0.106,0.562,0.106,1.017v6.686h4.747v0.535
						h-5.951v-7.221C80.942,63.478,80.88,63.142,80.756,62.923z"/>
					<path fill="#FFFFFF" d="M90.516,62.923c-0.125-0.219-0.375-0.328-0.749-0.328h-0.268v-0.268h1.203
						c0.33,0,0.577,0.043,0.742,0.128c0.165,0.084,0.282,0.238,0.354,0.461c0.072,0.224,0.107,0.562,0.107,1.017v6.686h4.748v0.535
						h-5.952v-7.221C90.702,63.478,90.641,63.142,90.516,62.923z"/>
					<path fill="#FFFFFF" d="M101.271,70.806c-0.628-0.41-1.112-0.971-1.451-1.685c-0.338-0.714-0.508-1.507-0.508-2.38
						c0-0.875,0.17-1.668,0.508-2.381c0.339-0.713,0.823-1.275,1.451-1.686c0.629-0.41,1.357-0.615,2.187-0.615
						s1.559,0.205,2.187,0.615c0.629,0.41,1.112,0.973,1.451,1.686s0.508,1.506,0.508,2.381c0,0.873-0.169,1.666-0.508,2.38
						s-0.822,1.274-1.451,1.685c-0.628,0.41-1.357,0.615-2.187,0.615S101.899,71.216,101.271,70.806z M104.961,70.378
						c0.425-0.339,0.747-0.818,0.97-1.438c0.224-0.619,0.335-1.353,0.335-2.199c0-0.848-0.111-1.58-0.335-2.2
						c-0.223-0.62-0.545-1.099-0.97-1.438c-0.423-0.338-0.925-0.508-1.504-0.508s-1.081,0.17-1.504,0.508
						c-0.424,0.34-0.747,0.818-0.97,1.438s-0.335,1.353-0.335,2.2c0,0.847,0.112,1.58,0.335,2.199s0.546,1.099,0.97,1.438
						c0.423,0.34,0.925,0.508,1.504,0.508S104.538,70.718,104.961,70.378z"/>
				</g>
				<g>
					<path fill="#FFFFFF" d="M38.082,76.81c-0.085-0.146-0.252-0.221-0.504-0.221h-0.18v-0.18h2.337
						c0.575,0,1.094,0.123,1.556,0.369c0.461,0.246,0.691,0.723,0.691,1.43c0,0.467-0.119,0.826-0.359,1.078
						c-0.239,0.252-0.508,0.42-0.805,0.504c-0.296,0.084-0.567,0.125-0.813,0.125h-0.988v2.428h-0.81v-4.854
						C38.207,77.183,38.165,76.957,38.082,76.81z M40.302,79.452c0.216-0.099,0.4-0.256,0.553-0.472
						c0.153-0.216,0.229-0.489,0.229-0.817c0-0.33-0.076-0.603-0.229-0.818c-0.152-0.216-0.337-0.373-0.553-0.473
						c-0.216-0.099-0.42-0.148-0.611-0.148c-0.21,0-0.435,0.031-0.674,0.09v2.697c0.239,0.061,0.464,0.09,0.674,0.09
						C39.882,79.601,40.086,79.552,40.302,79.452z"/>
					<path fill="#FFFFFF" d="M45.751,82.312c-0.197-0.081-0.367-0.215-0.508-0.4s-0.211-0.432-0.211-0.737
						c0-0.455,0.211-0.778,0.634-0.971s0.976-0.288,1.658-0.288h0.27c0-0.587-0.08-0.988-0.242-1.204s-0.396-0.323-0.701-0.323
						c-0.27,0-0.485,0.057-0.646,0.17c-0.162,0.114-0.276,0.313-0.343,0.594h-0.404c0-0.204,0.013-0.363,0.036-0.48
						c0.024-0.117,0.087-0.227,0.189-0.328c0.107-0.108,0.286-0.188,0.534-0.238s0.521-0.076,0.813-0.076
						c0.485,0,0.869,0.13,1.151,0.391c0.281,0.26,0.422,0.76,0.422,1.496v2.428h-0.449l-0.314-0.404h-0.046
						c-0.107,0.138-0.267,0.254-0.476,0.35c-0.21,0.096-0.471,0.145-0.782,0.145C46.145,82.433,45.949,82.392,45.751,82.312z
						 M47.234,81.884c0.132-0.096,0.252-0.227,0.359-0.395v-1.215h-0.27c-0.443,0-0.794,0.084-1.052,0.248
						c-0.257,0.164-0.386,0.382-0.386,0.651c0,0.276,0.082,0.487,0.247,0.634c0.164,0.146,0.367,0.221,0.606,0.221
						C46.938,82.028,47.103,81.98,47.234,81.884z"/>
					<path fill="#FFFFFF" d="M52.621,82.146c-0.191-0.192-0.287-0.486-0.287-0.881v-2.787h-0.63v-0.359h0.63v-0.81l0.449-0.539
						h0.359v1.349h1.079v0.359h-1.079v2.787c0,0.539,0.21,0.809,0.63,0.809c0.144,0,0.265-0.015,0.363-0.045
						c0.1-0.03,0.203-0.075,0.311-0.135l0.09,0.18c-0.138,0.103-0.291,0.188-0.458,0.256c-0.168,0.068-0.391,0.104-0.666,0.104
						C53.076,82.433,52.813,82.337,52.621,82.146z"/>
					<path fill="#FFFFFF" d="M57.721,78.517c-0.084-0.146-0.252-0.219-0.504-0.219h-0.18v-0.18h0.809
						c0.222,0,0.389,0.028,0.499,0.084c0.111,0.058,0.19,0.161,0.239,0.311c0.048,0.15,0.071,0.378,0.071,0.684v3.146h-0.81v-3.146
						C57.846,78.891,57.805,78.665,57.721,78.517z M57.833,77.407c-0.1-0.113-0.148-0.249-0.148-0.404
						c0-0.126,0.037-0.225,0.112-0.297s0.176-0.107,0.301-0.107c0.138,0,0.256,0.057,0.355,0.171
						c0.099,0.113,0.148,0.249,0.148,0.403c0,0.127-0.038,0.226-0.112,0.297c-0.075,0.072-0.176,0.108-0.302,0.108
						C58.05,77.578,57.932,77.521,57.833,77.407z"/>
					<path fill="#FFFFFF" d="M62.451,82.073c-0.103-0.102-0.165-0.217-0.189-0.347c-0.023-0.128-0.036-0.327-0.036-0.597h0.18
						c0.055,0.299,0.185,0.531,0.392,0.696s0.496,0.247,0.867,0.247c0.33,0,0.577-0.057,0.742-0.171
						c0.164-0.114,0.247-0.267,0.247-0.458c0-0.174-0.064-0.324-0.193-0.45s-0.334-0.245-0.616-0.36l-0.539-0.224
						c-0.359-0.144-0.629-0.312-0.809-0.504c-0.18-0.191-0.271-0.429-0.271-0.71c0-0.365,0.139-0.652,0.414-0.859
						c0.275-0.205,0.632-0.309,1.069-0.309c0.659,0,1.109,0.119,1.349,0.359c0.102,0.102,0.165,0.215,0.189,0.342
						c0.023,0.125,0.035,0.326,0.035,0.602h-0.18c-0.048-0.299-0.174-0.531-0.378-0.697c-0.203-0.164-0.482-0.246-0.835-0.246
						c-0.282,0-0.502,0.059-0.661,0.175s-0.238,0.269-0.238,0.454c0,0.312,0.24,0.566,0.719,0.764l0.54,0.226
						c0.407,0.167,0.704,0.346,0.89,0.534c0.186,0.189,0.279,0.43,0.279,0.725c0,0.365-0.147,0.65-0.441,0.857
						c-0.293,0.207-0.671,0.311-1.133,0.311C63.155,82.433,62.69,82.313,62.451,82.073z"/>
					<path fill="#FFFFFF" d="M68.97,82.073c-0.102-0.102-0.165-0.217-0.188-0.347c-0.023-0.128-0.036-0.327-0.036-0.597h0.18
						c0.054,0.299,0.185,0.531,0.392,0.696s0.496,0.247,0.867,0.247c0.329,0,0.577-0.057,0.741-0.171
						c0.165-0.114,0.248-0.267,0.248-0.458c0-0.174-0.065-0.324-0.193-0.45c-0.13-0.126-0.335-0.245-0.616-0.36l-0.539-0.224
						c-0.36-0.144-0.629-0.312-0.81-0.504c-0.18-0.191-0.27-0.429-0.27-0.71c0-0.365,0.139-0.652,0.414-0.859
						c0.275-0.205,0.632-0.309,1.069-0.309c0.659,0,1.109,0.119,1.348,0.359c0.103,0.102,0.166,0.215,0.189,0.342
						c0.024,0.125,0.036,0.326,0.036,0.602h-0.18c-0.049-0.299-0.174-0.531-0.378-0.697c-0.203-0.164-0.482-0.246-0.836-0.246
						c-0.282,0-0.502,0.059-0.661,0.175c-0.158,0.116-0.237,0.269-0.237,0.454c0,0.312,0.239,0.566,0.719,0.764l0.539,0.226
						c0.408,0.167,0.704,0.346,0.891,0.534c0.186,0.189,0.278,0.43,0.278,0.725c0,0.365-0.146,0.65-0.44,0.857
						s-0.672,0.311-1.133,0.311C69.674,82.433,69.209,82.313,68.97,82.073z"/>
					<path fill="#FFFFFF" d="M76.082,82.141c-0.281-0.194-0.494-0.458-0.639-0.791c-0.144-0.333-0.214-0.706-0.214-1.119
						c0-0.407,0.07-0.779,0.214-1.115c0.145-0.335,0.353-0.601,0.625-0.796c0.273-0.194,0.592-0.291,0.959-0.291
						c0.604,0,1.055,0.168,1.352,0.508c0.297,0.338,0.445,0.828,0.445,1.47l-0.018,0.359h-2.725c0,0.503,0.108,0.913,0.324,1.231
						c0.216,0.317,0.513,0.477,0.89,0.477c0.282,0,0.52-0.06,0.715-0.18c0.194-0.12,0.376-0.301,0.545-0.539l0.179,0.135
						c-0.198,0.329-0.428,0.568-0.692,0.719c-0.264,0.149-0.572,0.225-0.926,0.225C76.708,82.433,76.364,82.335,76.082,82.141z
						 M77.736,78.802c-0.156-0.277-0.393-0.414-0.709-0.414c-0.181,0-0.343,0.07-0.486,0.211c-0.145,0.141-0.257,0.334-0.337,0.58
						c-0.081,0.246-0.122,0.521-0.122,0.827h1.888C77.97,79.478,77.893,79.077,77.736,78.802z"/>
					<path fill="#FFFFFF" d="M82.314,78.517c-0.084-0.146-0.252-0.219-0.504-0.219h-0.09v-0.18h0.72
						c0.228,0,0.399,0.031,0.517,0.094s0.199,0.166,0.247,0.311h0.045c0.108-0.139,0.253-0.256,0.437-0.352
						c0.183-0.096,0.396-0.143,0.643-0.143c0.239,0,0.419,0.045,0.54,0.135c0.101,0.077,0.206,0.212,0.314,0.404l-0.36,0.27
						c-0.066-0.09-0.162-0.158-0.288-0.203c-0.126-0.044-0.27-0.066-0.431-0.066c-0.181,0-0.345,0.04-0.495,0.121
						s-0.27,0.19-0.359,0.328v3.326H82.44v-3.146C82.44,78.891,82.397,78.665,82.314,78.517z"/>
					<path fill="#FFFFFF" d="M88.456,78.517c-0.084-0.146-0.252-0.219-0.504-0.219h-0.18v-0.18h0.809
						c0.222,0,0.389,0.028,0.499,0.084c0.111,0.058,0.19,0.161,0.238,0.311c0.048,0.15,0.072,0.378,0.072,0.684v3.146h-0.81v-3.146
						C88.581,78.891,88.539,78.665,88.456,78.517z M88.568,77.407c-0.099-0.113-0.148-0.249-0.148-0.404
						c0-0.126,0.037-0.225,0.112-0.297s0.175-0.107,0.301-0.107c0.139,0,0.257,0.057,0.355,0.171
						c0.099,0.113,0.149,0.249,0.149,0.403c0,0.127-0.038,0.226-0.114,0.297c-0.075,0.072-0.175,0.108-0.301,0.108
						C88.785,77.578,88.668,77.521,88.568,77.407z"/>
					<path fill="#FFFFFF" d="M93.78,82.141c-0.282-0.194-0.495-0.458-0.639-0.791s-0.216-0.706-0.216-1.119
						c0-0.407,0.072-0.779,0.216-1.115c0.144-0.335,0.353-0.601,0.624-0.796c0.272-0.194,0.593-0.291,0.958-0.291
						c0.605,0,1.057,0.168,1.353,0.508c0.297,0.338,0.445,0.828,0.445,1.47l-0.019,0.359H93.78c0,0.503,0.107,0.913,0.323,1.231
						c0.215,0.317,0.512,0.477,0.889,0.477c0.283,0,0.521-0.06,0.715-0.18c0.195-0.12,0.377-0.301,0.545-0.539l0.18,0.135
						c-0.197,0.329-0.429,0.568-0.692,0.719c-0.264,0.149-0.572,0.225-0.926,0.225C94.406,82.433,94.062,82.335,93.78,82.141z
						 M95.434,78.802c-0.155-0.277-0.393-0.414-0.71-0.414c-0.18,0-0.342,0.07-0.485,0.211s-0.256,0.334-0.337,0.58
						c-0.082,0.246-0.121,0.521-0.121,0.827h1.888C95.668,79.478,95.59,79.077,95.434,78.802z"/>
				</g>
				<g>
					<path fill="#FFFFFF" d="M58.211,51.425c-0.757,0-1.136,0.349-1.136,1.046h-0.182v-0.683c0-0.484,0.257-0.727,0.772-0.727h4.225
						v0.363h-2.045v5.633h-0.817v-5.633H58.211z"/>
					<path fill="#FFFFFF" d="M64.652,51.466c-0.085-0.148-0.255-0.223-0.509-0.223h-0.182v-0.182h0.817
						c0.225,0,0.393,0.029,0.504,0.086c0.112,0.059,0.192,0.162,0.241,0.314c0.048,0.151,0.073,0.381,0.073,0.689v1.637h2.725
						v-2.727h0.818v4.906c0,0.309,0.042,0.537,0.127,0.686s0.254,0.223,0.509,0.223h0.182v0.182h-0.817
						c-0.225,0-0.393-0.028-0.505-0.086c-0.111-0.058-0.192-0.162-0.24-0.313c-0.049-0.152-0.073-0.383-0.073-0.691v-1.816h-2.725
						v2.906h-0.818v-4.906C64.779,51.843,64.736,51.614,64.652,51.466z"/>
					<path fill="#FFFFFF" d="M72.765,51.466c-0.084-0.148-0.254-0.223-0.509-0.223h-0.182v-0.182h3.87
						c0.515,0,0.773,0.242,0.773,0.727v0.683h-0.183c0-0.697-0.378-1.046-1.135-1.046h-1.69v2.363h2.453v0.363H73.71v2.543h1.59
						c0.418,0,0.745-0.075,0.981-0.227c0.235-0.151,0.424-0.408,0.563-0.772l0.182,0.046l-0.318,0.863
						c-0.109,0.303-0.336,0.453-0.682,0.453h-3.134v-4.906C72.893,51.843,72.85,51.614,72.765,51.466z"/>
				</g>
			</g>
		</g>
	</g>
</g>
</svg>
