<?xml version="1.0" encoding="utf-8"?>
<!-- Generator: Adobe Illustrator 16.0.0, SVG Export Plug-In . SVG Version: 6.00 Build 0)  -->
<!DOCTYPE svg PUBLIC "-//W3C//DTD SVG 1.1//EN" "http://www.w3.org/Graphics/SVG/1.1/DTD/svg11.dtd">
<svg version="1.1" id="Layer_1" xmlns="http://www.w3.org/2000/svg" xmlns:xlink="http://www.w3.org/1999/xlink" x="0px" y="0px"
	 width="100%" height="100%" viewBox="0 0 82.517 31.377" enable-background="new 0 0 82.517 31.377" xml:space="preserve">
<g>
	<g>
		<path fill="#C6110C" d="M2.22,11.801c-1.114,0-1.671,0.513-1.671,1.538H0.281v-1.003c0-0.713,0.379-1.07,1.137-1.07h6.219v0.535
			h-3.01v8.291H3.424v-8.291H2.22z"/>
		<path fill="#C6110C" d="M16.413,19.805c-0.353-0.281-0.742-0.787-1.171-1.518l-1.337-2.273h-0.937v4.078h-1.203v-7.221
			c0-0.455-0.063-0.791-0.188-1.01s-0.374-0.328-0.749-0.328h-0.267v-0.268h3.477c0.847,0,1.616,0.168,2.307,0.502
			s1.036,0.97,1.036,1.905c0,1.187-0.713,1.944-2.14,2.273l1.404,2.341c0.33,0.553,0.626,0.938,0.89,1.156
			c0.263,0.219,0.568,0.346,0.916,0.381v0.268c-0.08,0.035-0.194,0.066-0.342,0.094c-0.146,0.027-0.3,0.041-0.461,0.041
			C17.178,20.227,16.765,20.086,16.413,19.805z M14.875,15.345c0.325-0.134,0.602-0.343,0.829-0.628
			c0.228-0.286,0.341-0.633,0.341-1.044c0-0.437-0.113-0.8-0.341-1.089c-0.228-0.29-0.504-0.504-0.829-0.643
			c-0.326-0.138-0.627-0.207-0.902-0.207c-0.313,0-0.646,0.045-1.004,0.133v3.545c0.357,0.088,0.691,0.133,1.004,0.133
			C14.248,15.545,14.549,15.479,14.875,15.345z"/>
		<path fill="#C6110C" d="M23.45,19.791c-0.499-0.289-0.854-0.72-1.063-1.291c-0.21-0.57-0.314-1.31-0.314-2.219v-3.41
			c0-0.455-0.063-0.791-0.188-1.01c-0.125-0.219-0.375-0.328-0.749-0.328h-0.268v-0.268h1.204c0.33,0,0.577,0.043,0.742,0.128
			c0.164,0.084,0.283,0.238,0.354,0.461c0.071,0.224,0.106,0.562,0.106,1.017v3.812c0,0.989,0.183,1.738,0.549,2.246
			c0.365,0.509,0.972,0.763,1.818,0.763c0.678,0,1.215-0.121,1.611-0.361s0.68-0.606,0.85-1.097c0.169-0.49,0.254-1.142,0.254-1.952
			v-5.016h0.534v5.016c0,0.927-0.098,1.674-0.294,2.24c-0.195,0.565-0.541,0.991-1.036,1.276c-0.494,0.286-1.188,0.429-2.079,0.429
			C24.627,20.227,23.949,20.082,23.45,19.791z"/>
		<path fill="#C6110C" d="M33.718,11.861c-0.125-0.219-0.374-0.328-0.749-0.328h-0.267v-0.268h5.336c0.757,0,1.136,0.357,1.136,1.07
			v1.003h-0.267c0-1.025-0.558-1.538-1.672-1.538h-2.127v3.544h3.022v0.535h-3.022v4.212h-1.203v-7.221
			C33.905,12.416,33.843,12.08,33.718,11.861z"/>
		<path fill="#C6110C" d="M44.787,19.791c-0.499-0.289-0.854-0.72-1.063-1.291c-0.21-0.57-0.314-1.31-0.314-2.219v-3.41
			c0-0.455-0.063-0.791-0.188-1.01s-0.374-0.328-0.749-0.328h-0.268v-0.268h1.204c0.33,0,0.577,0.043,0.742,0.128
			c0.165,0.084,0.282,0.238,0.354,0.461c0.07,0.224,0.106,0.562,0.106,1.017v3.812c0,0.989,0.183,1.738,0.549,2.246
			c0.365,0.509,0.972,0.763,1.818,0.763c0.678,0,1.215-0.121,1.611-0.361s0.68-0.606,0.85-1.097c0.169-0.49,0.253-1.142,0.253-1.952
			v-5.016h0.536v5.016c0,0.927-0.099,1.674-0.294,2.24c-0.197,0.565-0.542,0.991-1.037,1.276c-0.494,0.286-1.188,0.429-2.079,0.429
			C45.965,20.227,45.287,20.082,44.787,19.791z"/>
		<path fill="#C6110C" d="M55.055,11.861c-0.125-0.219-0.375-0.328-0.749-0.328h-0.268v-0.268h1.203c0.33,0,0.577,0.043,0.743,0.128
			c0.164,0.084,0.283,0.238,0.354,0.461c0.071,0.224,0.106,0.562,0.106,1.017v6.686h4.747v0.535h-5.951v-7.221
			C55.241,12.416,55.179,12.08,55.055,11.861z"/>
		<path fill="#C6110C" d="M64.814,11.861c-0.125-0.219-0.375-0.328-0.749-0.328h-0.268v-0.268h1.203c0.33,0,0.577,0.043,0.742,0.128
			c0.165,0.084,0.282,0.238,0.354,0.461c0.072,0.224,0.107,0.562,0.107,1.017v6.686h4.748v0.535h-5.952v-7.221
			C65.001,12.416,64.939,12.08,64.814,11.861z"/>
		<path fill="#C6110C" d="M75.569,19.744c-0.628-0.41-1.112-0.971-1.451-1.685c-0.338-0.714-0.508-1.507-0.508-2.38
			c0-0.875,0.17-1.668,0.508-2.381c0.339-0.713,0.823-1.275,1.451-1.686c0.629-0.41,1.357-0.615,2.187-0.615
			s1.559,0.205,2.187,0.615c0.629,0.41,1.112,0.973,1.451,1.686s0.508,1.506,0.508,2.381c0,0.873-0.169,1.666-0.508,2.38
			s-0.822,1.274-1.451,1.685c-0.628,0.41-1.357,0.615-2.187,0.615S76.198,20.154,75.569,19.744z M79.26,19.316
			c0.425-0.339,0.747-0.818,0.97-1.438c0.224-0.619,0.335-1.353,0.335-2.199c0-0.848-0.111-1.58-0.335-2.2
			c-0.223-0.62-0.545-1.099-0.97-1.438c-0.423-0.338-0.925-0.508-1.504-0.508s-1.081,0.17-1.504,0.508
			c-0.424,0.34-0.747,0.818-0.97,1.438s-0.335,1.353-0.335,2.2c0,0.847,0.112,1.58,0.335,2.199s0.546,1.099,0.97,1.438
			c0.423,0.34,0.925,0.508,1.504,0.508S78.837,19.656,79.26,19.316z"/>
	</g>
	<g>
		<path fill="#C6110C" d="M12.381,25.748c-0.085-0.146-0.252-0.221-0.504-0.221h-0.18v-0.18h2.337c0.575,0,1.094,0.123,1.556,0.369
			c0.461,0.246,0.691,0.723,0.691,1.43c0,0.467-0.119,0.826-0.359,1.078c-0.239,0.252-0.508,0.42-0.805,0.504
			c-0.296,0.084-0.567,0.125-0.813,0.125h-0.988v2.428h-0.81v-4.854C12.506,26.121,12.464,25.896,12.381,25.748z M14.601,28.391
			c0.216-0.099,0.4-0.256,0.553-0.472c0.153-0.216,0.229-0.489,0.229-0.817c0-0.33-0.076-0.603-0.229-0.818
			c-0.152-0.216-0.337-0.373-0.553-0.473c-0.216-0.099-0.42-0.148-0.611-0.148c-0.21,0-0.435,0.031-0.674,0.09v2.697
			c0.239,0.061,0.464,0.09,0.674,0.09C14.181,28.539,14.385,28.49,14.601,28.391z"/>
		<path fill="#C6110C" d="M20.05,31.25c-0.197-0.081-0.367-0.215-0.508-0.4s-0.211-0.432-0.211-0.737
			c0-0.455,0.211-0.778,0.634-0.971s0.976-0.288,1.658-0.288h0.27c0-0.587-0.08-0.988-0.242-1.204s-0.396-0.323-0.701-0.323
			c-0.27,0-0.485,0.057-0.646,0.17c-0.162,0.114-0.276,0.313-0.343,0.594h-0.404c0-0.204,0.013-0.363,0.036-0.48
			c0.024-0.117,0.087-0.227,0.189-0.328c0.107-0.108,0.286-0.188,0.534-0.238s0.521-0.076,0.813-0.076
			c0.485,0,0.869,0.13,1.151,0.391c0.281,0.26,0.422,0.76,0.422,1.496v2.428h-0.449l-0.314-0.404h-0.046
			c-0.107,0.138-0.267,0.254-0.476,0.35c-0.21,0.096-0.471,0.145-0.782,0.145C20.443,31.371,20.248,31.33,20.05,31.25z
			 M21.533,30.822c0.132-0.096,0.252-0.227,0.359-0.395v-1.215h-0.27c-0.443,0-0.794,0.084-1.052,0.248
			c-0.257,0.164-0.386,0.382-0.386,0.651c0,0.276,0.082,0.487,0.247,0.634c0.164,0.146,0.367,0.221,0.606,0.221
			C21.237,30.967,21.401,30.919,21.533,30.822z"/>
		<path fill="#C6110C" d="M26.92,31.084c-0.191-0.192-0.287-0.486-0.287-0.881v-2.787h-0.63v-0.359h0.63v-0.81l0.449-0.539h0.359
			v1.349h1.079v0.359h-1.079v2.787c0,0.539,0.21,0.809,0.63,0.809c0.144,0,0.265-0.015,0.363-0.045
			c0.1-0.03,0.203-0.075,0.311-0.135l0.09,0.18c-0.138,0.103-0.291,0.188-0.458,0.256c-0.168,0.068-0.391,0.104-0.666,0.104
			C27.375,31.371,27.112,31.275,26.92,31.084z"/>
		<path fill="#C6110C" d="M32.02,27.455c-0.084-0.146-0.252-0.219-0.504-0.219h-0.18v-0.18h0.809c0.222,0,0.389,0.028,0.499,0.084
			c0.111,0.058,0.19,0.161,0.239,0.311c0.048,0.15,0.071,0.378,0.071,0.684v3.146h-0.81v-3.146
			C32.145,27.829,32.104,27.604,32.02,27.455z M32.132,26.346c-0.1-0.113-0.148-0.249-0.148-0.404c0-0.126,0.037-0.225,0.112-0.297
			s0.176-0.107,0.301-0.107c0.138,0,0.256,0.057,0.355,0.171c0.099,0.113,0.148,0.249,0.148,0.403c0,0.127-0.038,0.226-0.112,0.297
			c-0.075,0.072-0.176,0.108-0.302,0.108C32.349,26.517,32.23,26.46,32.132,26.346z"/>
		<path fill="#C6110C" d="M36.75,31.012c-0.103-0.102-0.165-0.217-0.189-0.347c-0.023-0.128-0.036-0.327-0.036-0.597h0.18
			c0.055,0.299,0.185,0.531,0.392,0.696s0.496,0.247,0.867,0.247c0.33,0,0.577-0.057,0.742-0.171
			c0.164-0.114,0.247-0.267,0.247-0.458c0-0.174-0.064-0.324-0.193-0.45s-0.334-0.245-0.616-0.36l-0.539-0.224
			c-0.359-0.144-0.629-0.312-0.809-0.504c-0.18-0.191-0.271-0.429-0.271-0.71c0-0.365,0.139-0.652,0.414-0.859
			c0.275-0.205,0.632-0.309,1.069-0.309c0.659,0,1.109,0.119,1.349,0.359c0.102,0.102,0.165,0.215,0.189,0.342
			c0.023,0.125,0.035,0.326,0.035,0.602h-0.18c-0.048-0.299-0.174-0.531-0.378-0.697c-0.203-0.164-0.482-0.246-0.835-0.246
			c-0.282,0-0.502,0.059-0.661,0.175s-0.238,0.269-0.238,0.454c0,0.312,0.24,0.566,0.719,0.764l0.54,0.226
			c0.407,0.167,0.704,0.346,0.89,0.534c0.186,0.189,0.279,0.43,0.279,0.725c0,0.365-0.147,0.65-0.441,0.857
			c-0.293,0.207-0.671,0.311-1.133,0.311C37.454,31.371,36.989,31.252,36.75,31.012z"/>
		<path fill="#C6110C" d="M43.269,31.012c-0.102-0.102-0.165-0.217-0.188-0.347c-0.023-0.128-0.036-0.327-0.036-0.597h0.18
			c0.054,0.299,0.185,0.531,0.392,0.696s0.496,0.247,0.867,0.247c0.329,0,0.577-0.057,0.741-0.171
			c0.165-0.114,0.248-0.267,0.248-0.458c0-0.174-0.065-0.324-0.193-0.45c-0.13-0.126-0.335-0.245-0.616-0.36l-0.539-0.224
			c-0.36-0.144-0.629-0.312-0.81-0.504c-0.18-0.191-0.27-0.429-0.27-0.71c0-0.365,0.139-0.652,0.414-0.859
			c0.275-0.205,0.632-0.309,1.069-0.309c0.659,0,1.109,0.119,1.348,0.359c0.103,0.102,0.166,0.215,0.189,0.342
			c0.024,0.125,0.036,0.326,0.036,0.602h-0.18c-0.049-0.299-0.174-0.531-0.378-0.697c-0.203-0.164-0.482-0.246-0.836-0.246
			c-0.282,0-0.502,0.059-0.661,0.175c-0.158,0.116-0.237,0.269-0.237,0.454c0,0.312,0.239,0.566,0.719,0.764l0.539,0.226
			c0.408,0.167,0.704,0.346,0.891,0.534c0.186,0.189,0.278,0.43,0.278,0.725c0,0.365-0.146,0.65-0.44,0.857
			s-0.672,0.311-1.133,0.311C43.973,31.371,43.508,31.252,43.269,31.012z"/>
		<path fill="#C6110C" d="M50.381,31.079c-0.281-0.194-0.494-0.458-0.639-0.791c-0.144-0.333-0.214-0.706-0.214-1.119
			c0-0.407,0.07-0.779,0.214-1.115c0.145-0.335,0.353-0.601,0.625-0.796c0.273-0.194,0.592-0.291,0.959-0.291
			c0.604,0,1.055,0.168,1.352,0.508c0.297,0.338,0.445,0.828,0.445,1.47l-0.018,0.359h-2.725c0,0.503,0.108,0.913,0.324,1.231
			c0.216,0.317,0.513,0.477,0.89,0.477c0.282,0,0.52-0.06,0.715-0.18c0.194-0.12,0.376-0.301,0.545-0.539l0.179,0.135
			c-0.198,0.329-0.428,0.568-0.692,0.719c-0.264,0.149-0.572,0.225-0.926,0.225C51.007,31.371,50.663,31.273,50.381,31.079z
			 M52.035,27.74c-0.156-0.277-0.393-0.414-0.709-0.414c-0.181,0-0.343,0.07-0.486,0.211c-0.145,0.141-0.257,0.334-0.337,0.58
			c-0.081,0.246-0.122,0.521-0.122,0.827h1.888C52.269,28.416,52.191,28.016,52.035,27.74z"/>
		<path fill="#C6110C" d="M56.613,27.455c-0.084-0.146-0.252-0.219-0.504-0.219h-0.09v-0.18h0.72c0.228,0,0.399,0.031,0.517,0.094
			s0.199,0.166,0.247,0.311h0.045c0.108-0.139,0.253-0.256,0.437-0.352c0.183-0.096,0.396-0.143,0.643-0.143
			c0.239,0,0.419,0.045,0.54,0.135c0.101,0.077,0.206,0.212,0.314,0.404l-0.36,0.27c-0.066-0.09-0.162-0.158-0.288-0.203
			c-0.126-0.044-0.27-0.066-0.431-0.066c-0.181,0-0.345,0.04-0.495,0.121s-0.27,0.19-0.359,0.328v3.326h-0.809v-3.146
			C56.739,27.829,56.696,27.604,56.613,27.455z"/>
		<path fill="#C6110C" d="M62.755,27.455c-0.084-0.146-0.252-0.219-0.504-0.219h-0.18v-0.18h0.809c0.222,0,0.389,0.028,0.499,0.084
			c0.111,0.058,0.19,0.161,0.238,0.311c0.048,0.15,0.072,0.378,0.072,0.684v3.146h-0.81v-3.146
			C62.88,27.829,62.838,27.604,62.755,27.455z M62.867,26.346c-0.099-0.113-0.148-0.249-0.148-0.404
			c0-0.126,0.037-0.225,0.112-0.297s0.175-0.107,0.301-0.107c0.139,0,0.257,0.057,0.355,0.171c0.099,0.113,0.149,0.249,0.149,0.403
			c0,0.127-0.038,0.226-0.114,0.297c-0.075,0.072-0.175,0.108-0.301,0.108C63.084,26.517,62.967,26.46,62.867,26.346z"/>
		<path fill="#C6110C" d="M68.079,31.079c-0.282-0.194-0.495-0.458-0.639-0.791s-0.216-0.706-0.216-1.119
			c0-0.407,0.072-0.779,0.216-1.115c0.144-0.335,0.353-0.601,0.624-0.796c0.272-0.194,0.593-0.291,0.958-0.291
			c0.605,0,1.057,0.168,1.353,0.508c0.297,0.338,0.445,0.828,0.445,1.47l-0.019,0.359h-2.723c0,0.503,0.107,0.913,0.323,1.231
			c0.215,0.317,0.512,0.477,0.889,0.477c0.283,0,0.521-0.06,0.715-0.18c0.195-0.12,0.377-0.301,0.545-0.539l0.18,0.135
			c-0.197,0.329-0.429,0.568-0.692,0.719c-0.264,0.149-0.572,0.225-0.926,0.225C68.705,31.371,68.36,31.273,68.079,31.079z
			 M69.732,27.74c-0.155-0.277-0.393-0.414-0.71-0.414c-0.18,0-0.342,0.07-0.485,0.211s-0.256,0.334-0.337,0.58
			c-0.082,0.246-0.121,0.521-0.121,0.827h1.888C69.967,28.416,69.889,28.016,69.732,27.74z"/>
	</g>
	<g>
		<path fill="#C6110C" d="M32.51,0.363c-0.757,0-1.136,0.349-1.136,1.046h-0.182V0.727C31.192,0.242,31.449,0,31.965,0h4.225v0.363
			h-2.045v5.633h-0.817V0.363H32.51z"/>
		<path fill="#C6110C" d="M38.951,0.404c-0.085-0.148-0.255-0.223-0.509-0.223h-0.182V0h0.817c0.225,0,0.393,0.029,0.504,0.086
			c0.112,0.059,0.192,0.162,0.241,0.314c0.048,0.151,0.073,0.381,0.073,0.689v1.637h2.725V0h0.818v4.906
			c0,0.309,0.042,0.537,0.127,0.686s0.254,0.223,0.509,0.223h0.182v0.182h-0.817c-0.225,0-0.393-0.028-0.505-0.086
			c-0.111-0.058-0.192-0.162-0.24-0.313c-0.049-0.152-0.073-0.383-0.073-0.691V3.09h-2.725v2.906h-0.818V1.09
			C39.078,0.781,39.035,0.553,38.951,0.404z"/>
		<path fill="#C6110C" d="M47.063,0.404c-0.084-0.148-0.254-0.223-0.509-0.223h-0.182V0h3.87c0.515,0,0.773,0.242,0.773,0.727v0.683
			h-0.183c0-0.697-0.378-1.046-1.135-1.046h-1.69v2.363h2.453V3.09h-2.453v2.543h1.59c0.418,0,0.745-0.075,0.981-0.227
			c0.235-0.151,0.424-0.408,0.563-0.772l0.182,0.046l-0.318,0.863c-0.109,0.303-0.336,0.453-0.682,0.453h-3.134V1.09
			C47.191,0.781,47.148,0.553,47.063,0.404z"/>
	</g>
	<g>
		<g>
			<rect y="2.055" fill="#C6110C" width="28.257" height="0.535"/>
		</g>
		<g>
			<rect y="3.281" fill="#C6110C" width="28.257" height="1.523"/>
		</g>
	</g>
	<g>
		<g>
			<rect x="54.261" y="2.055" fill="#C6110C" width="28.256" height="0.535"/>
		</g>
		<g>
			<rect x="54.261" y="3.281" fill="#C6110C" width="28.256" height="1.523"/>
		</g>
	</g>
	<g>
		<rect y="28.579" fill="#C6110C" width="7.653" height="0.535"/>
	</g>
	<g>
		<rect x="74.863" y="28.579" fill="#C6110C" width="7.653" height="0.535"/>
	</g>
</g>
<g>
	<g>
		<g>
			<g>
				<path fill="#C6110C" d="M2.438,11.807c-1.114,0-1.671,0.513-1.671,1.538H0.5v-1.003c0-0.713,0.379-1.07,1.137-1.07h6.219v0.535
					h-3.01v8.291H3.643v-8.291H2.438z"/>
				<path fill="#C6110C" d="M16.632,19.811c-0.353-0.281-0.742-0.787-1.171-1.518l-1.337-2.273h-0.937v4.078h-1.203v-7.221
					c0-0.455-0.063-0.791-0.188-1.01s-0.374-0.328-0.749-0.328h-0.267v-0.268h3.477c0.847,0,1.616,0.168,2.307,0.502
					s1.036,0.97,1.036,1.905c0,1.187-0.713,1.944-2.14,2.273l1.404,2.341c0.33,0.553,0.626,0.938,0.89,1.156
					c0.263,0.219,0.568,0.346,0.916,0.381v0.268c-0.08,0.035-0.194,0.066-0.342,0.094c-0.146,0.027-0.3,0.041-0.461,0.041
					C17.396,20.232,16.983,20.092,16.632,19.811z M15.094,15.351c0.325-0.134,0.602-0.343,0.829-0.628
					c0.228-0.286,0.341-0.633,0.341-1.044c0-0.437-0.113-0.8-0.341-1.089c-0.228-0.29-0.504-0.504-0.829-0.643
					c-0.326-0.138-0.627-0.207-0.902-0.207c-0.313,0-0.646,0.045-1.004,0.133v3.545c0.357,0.088,0.691,0.133,1.004,0.133
					C14.467,15.551,14.768,15.484,15.094,15.351z"/>
				<path fill="#C6110C" d="M23.669,19.797c-0.499-0.289-0.854-0.72-1.063-1.291c-0.21-0.57-0.314-1.31-0.314-2.219v-3.41
					c0-0.455-0.063-0.791-0.188-1.01c-0.125-0.219-0.375-0.328-0.749-0.328h-0.268v-0.268h1.204c0.33,0,0.577,0.043,0.742,0.128
					c0.164,0.084,0.283,0.238,0.354,0.461c0.071,0.224,0.106,0.562,0.106,1.017v3.812c0,0.989,0.183,1.738,0.549,2.246
					c0.365,0.509,0.972,0.763,1.818,0.763c0.678,0,1.215-0.121,1.611-0.361s0.68-0.606,0.85-1.097
					c0.169-0.49,0.254-1.142,0.254-1.952v-5.016h0.534v5.016c0,0.927-0.098,1.674-0.294,2.24c-0.195,0.565-0.541,0.991-1.036,1.276
					c-0.494,0.286-1.188,0.429-2.079,0.429C24.846,20.232,24.168,20.088,23.669,19.797z"/>
				<path fill="#C6110C" d="M33.937,11.867c-0.125-0.219-0.374-0.328-0.749-0.328h-0.267v-0.268h5.336
					c0.757,0,1.136,0.357,1.136,1.07v1.003h-0.267c0-1.025-0.558-1.538-1.672-1.538h-2.127v3.544h3.022v0.535h-3.022v4.212h-1.203
					v-7.221C34.124,12.422,34.062,12.086,33.937,11.867z"/>
				<path fill="#C6110C" d="M45.006,19.797c-0.499-0.289-0.854-0.72-1.063-1.291c-0.21-0.57-0.314-1.31-0.314-2.219v-3.41
					c0-0.455-0.063-0.791-0.188-1.01s-0.374-0.328-0.749-0.328h-0.268v-0.268h1.204c0.33,0,0.577,0.043,0.742,0.128
					c0.165,0.084,0.282,0.238,0.354,0.461c0.07,0.224,0.106,0.562,0.106,1.017v3.812c0,0.989,0.183,1.738,0.549,2.246
					c0.365,0.509,0.972,0.763,1.818,0.763c0.678,0,1.215-0.121,1.611-0.361s0.68-0.606,0.85-1.097
					c0.169-0.49,0.253-1.142,0.253-1.952v-5.016h0.536v5.016c0,0.927-0.099,1.674-0.294,2.24c-0.197,0.565-0.542,0.991-1.037,1.276
					c-0.494,0.286-1.188,0.429-2.079,0.429C46.184,20.232,45.506,20.088,45.006,19.797z"/>
				<path fill="#C6110C" d="M55.273,11.867c-0.125-0.219-0.375-0.328-0.749-0.328h-0.268v-0.268h1.203
					c0.33,0,0.577,0.043,0.743,0.128c0.164,0.084,0.283,0.238,0.354,0.461c0.071,0.224,0.106,0.562,0.106,1.017v6.686h4.747v0.535
					H55.46v-7.221C55.46,12.422,55.397,12.086,55.273,11.867z"/>
				<path fill="#C6110C" d="M65.033,11.867c-0.125-0.219-0.375-0.328-0.749-0.328h-0.268v-0.268h1.203
					c0.33,0,0.577,0.043,0.742,0.128c0.165,0.084,0.282,0.238,0.354,0.461c0.072,0.224,0.107,0.562,0.107,1.017v6.686h4.748v0.535
					H65.22v-7.221C65.22,12.422,65.158,12.086,65.033,11.867z"/>
				<path fill="#C6110C" d="M75.788,19.75c-0.628-0.41-1.112-0.971-1.451-1.685c-0.338-0.714-0.508-1.507-0.508-2.38
					c0-0.875,0.17-1.668,0.508-2.381c0.339-0.713,0.823-1.275,1.451-1.686c0.629-0.41,1.357-0.615,2.187-0.615
					s1.559,0.205,2.187,0.615c0.629,0.41,1.112,0.973,1.451,1.686s0.508,1.506,0.508,2.381c0,0.873-0.169,1.666-0.508,2.38
					s-0.822,1.274-1.451,1.685c-0.628,0.41-1.357,0.615-2.187,0.615S76.417,20.16,75.788,19.75z M79.479,19.322
					c0.425-0.339,0.747-0.818,0.97-1.438c0.224-0.619,0.335-1.353,0.335-2.199c0-0.848-0.111-1.58-0.335-2.2
					c-0.223-0.62-0.545-1.099-0.97-1.438c-0.423-0.338-0.925-0.508-1.504-0.508s-1.081,0.17-1.504,0.508
					c-0.424,0.34-0.747,0.818-0.97,1.438s-0.335,1.353-0.335,2.2c0,0.847,0.112,1.58,0.335,2.199s0.546,1.099,0.97,1.438
					c0.423,0.34,0.925,0.508,1.504,0.508S79.056,19.662,79.479,19.322z"/>
			</g>
			<g>
				<path fill="#C6110C" d="M12.6,25.754c-0.085-0.146-0.252-0.221-0.504-0.221h-0.18v-0.18h2.337c0.575,0,1.094,0.123,1.556,0.369
					c0.461,0.246,0.691,0.723,0.691,1.43c0,0.467-0.119,0.826-0.359,1.078c-0.239,0.252-0.508,0.42-0.805,0.504
					c-0.296,0.084-0.567,0.125-0.813,0.125h-0.988v2.428h-0.81v-4.854C12.725,26.127,12.683,25.901,12.6,25.754z M14.819,28.396
					c0.216-0.099,0.4-0.256,0.553-0.472c0.153-0.216,0.229-0.489,0.229-0.817c0-0.33-0.076-0.603-0.229-0.818
					c-0.152-0.216-0.337-0.373-0.553-0.473c-0.216-0.099-0.42-0.148-0.611-0.148c-0.21,0-0.435,0.031-0.674,0.09v2.697
					c0.239,0.061,0.464,0.09,0.674,0.09C14.399,28.545,14.604,28.496,14.819,28.396z"/>
				<path fill="#C6110C" d="M20.269,31.256c-0.197-0.081-0.367-0.215-0.508-0.4s-0.211-0.432-0.211-0.737
					c0-0.455,0.211-0.778,0.634-0.971s0.976-0.288,1.658-0.288h0.27c0-0.587-0.08-0.988-0.242-1.204s-0.396-0.323-0.701-0.323
					c-0.27,0-0.485,0.057-0.646,0.17c-0.162,0.114-0.276,0.313-0.343,0.594h-0.404c0-0.204,0.013-0.363,0.036-0.48
					c0.024-0.117,0.087-0.227,0.189-0.328c0.107-0.108,0.286-0.188,0.534-0.238s0.521-0.076,0.813-0.076
					c0.485,0,0.869,0.13,1.151,0.391c0.281,0.26,0.422,0.76,0.422,1.496v2.428h-0.449l-0.314-0.404h-0.046
					c-0.107,0.138-0.267,0.254-0.476,0.35c-0.21,0.096-0.471,0.145-0.782,0.145C20.662,31.377,20.467,31.336,20.269,31.256z
					 M21.752,30.828c0.132-0.096,0.252-0.227,0.359-0.395v-1.215h-0.27c-0.443,0-0.794,0.084-1.052,0.248
					c-0.257,0.164-0.386,0.382-0.386,0.651c0,0.276,0.082,0.487,0.247,0.634c0.164,0.146,0.367,0.221,0.606,0.221
					C21.456,30.973,21.62,30.925,21.752,30.828z"/>
				<path fill="#C6110C" d="M27.139,31.09c-0.191-0.192-0.287-0.486-0.287-0.881v-2.787h-0.63v-0.359h0.63v-0.81l0.449-0.539h0.359
					v1.349h1.079v0.359H27.66v2.787c0,0.539,0.21,0.809,0.63,0.809c0.144,0,0.265-0.015,0.363-0.045
					c0.1-0.03,0.203-0.075,0.311-0.135l0.09,0.18c-0.138,0.103-0.291,0.188-0.458,0.256c-0.168,0.068-0.391,0.104-0.666,0.104
					C27.594,31.377,27.331,31.281,27.139,31.09z"/>
				<path fill="#C6110C" d="M32.238,27.461c-0.084-0.146-0.252-0.219-0.504-0.219h-0.18v-0.18h0.809
					c0.222,0,0.389,0.028,0.499,0.084c0.111,0.058,0.19,0.161,0.239,0.311c0.048,0.15,0.071,0.378,0.071,0.684v3.146h-0.81v-3.146
					C32.363,27.835,32.322,27.609,32.238,27.461z M32.351,26.352c-0.1-0.113-0.148-0.249-0.148-0.404
					c0-0.126,0.037-0.225,0.112-0.297s0.176-0.107,0.301-0.107c0.138,0,0.256,0.057,0.355,0.171
					c0.099,0.113,0.148,0.249,0.148,0.403c0,0.127-0.038,0.226-0.112,0.297c-0.075,0.072-0.176,0.108-0.302,0.108
					C32.567,26.522,32.449,26.466,32.351,26.352z"/>
				<path fill="#C6110C" d="M36.969,31.018c-0.103-0.102-0.165-0.217-0.189-0.347c-0.023-0.128-0.036-0.327-0.036-0.597h0.18
					c0.055,0.299,0.185,0.531,0.392,0.696s0.496,0.247,0.867,0.247c0.33,0,0.577-0.057,0.742-0.171
					c0.164-0.114,0.247-0.267,0.247-0.458c0-0.174-0.064-0.324-0.193-0.45s-0.334-0.245-0.616-0.36l-0.539-0.224
					c-0.359-0.144-0.629-0.312-0.809-0.504c-0.18-0.191-0.271-0.429-0.271-0.71c0-0.365,0.139-0.652,0.414-0.859
					c0.275-0.205,0.632-0.309,1.069-0.309c0.659,0,1.109,0.119,1.349,0.359c0.102,0.102,0.165,0.215,0.189,0.342
					C39.788,27.799,39.8,28,39.8,28.275h-0.18c-0.048-0.299-0.174-0.531-0.378-0.697c-0.203-0.164-0.482-0.246-0.835-0.246
					c-0.282,0-0.502,0.059-0.661,0.175s-0.238,0.269-0.238,0.454c0,0.312,0.24,0.566,0.719,0.764l0.54,0.226
					c0.407,0.167,0.704,0.346,0.89,0.534c0.186,0.189,0.279,0.43,0.279,0.725c0,0.365-0.147,0.65-0.441,0.857
					c-0.293,0.207-0.671,0.311-1.133,0.311C37.673,31.377,37.208,31.258,36.969,31.018z"/>
				<path fill="#C6110C" d="M43.487,31.018c-0.102-0.102-0.165-0.217-0.188-0.347c-0.023-0.128-0.036-0.327-0.036-0.597h0.18
					c0.054,0.299,0.185,0.531,0.392,0.696s0.496,0.247,0.867,0.247c0.329,0,0.577-0.057,0.741-0.171
					c0.165-0.114,0.248-0.267,0.248-0.458c0-0.174-0.065-0.324-0.193-0.45c-0.13-0.126-0.335-0.245-0.616-0.36l-0.539-0.224
					c-0.36-0.144-0.629-0.312-0.81-0.504c-0.18-0.191-0.27-0.429-0.27-0.71c0-0.365,0.139-0.652,0.414-0.859
					c0.275-0.205,0.632-0.309,1.069-0.309c0.659,0,1.109,0.119,1.348,0.359c0.103,0.102,0.166,0.215,0.189,0.342
					c0.024,0.125,0.036,0.326,0.036,0.602h-0.18c-0.049-0.299-0.174-0.531-0.378-0.697c-0.203-0.164-0.482-0.246-0.836-0.246
					c-0.282,0-0.502,0.059-0.661,0.175c-0.158,0.116-0.237,0.269-0.237,0.454c0,0.312,0.239,0.566,0.719,0.764l0.539,0.226
					c0.408,0.167,0.704,0.346,0.891,0.534c0.186,0.189,0.278,0.43,0.278,0.725c0,0.365-0.146,0.65-0.44,0.857
					s-0.672,0.311-1.133,0.311C44.191,31.377,43.727,31.258,43.487,31.018z"/>
				<path fill="#C6110C" d="M50.6,31.085c-0.281-0.194-0.494-0.458-0.639-0.791c-0.144-0.333-0.214-0.706-0.214-1.119
					c0-0.407,0.07-0.779,0.214-1.115c0.145-0.335,0.353-0.601,0.625-0.796c0.273-0.194,0.592-0.291,0.959-0.291
					c0.604,0,1.055,0.168,1.352,0.508c0.297,0.338,0.445,0.828,0.445,1.47l-0.018,0.359H50.6c0,0.503,0.108,0.913,0.324,1.231
					c0.216,0.317,0.513,0.477,0.89,0.477c0.282,0,0.52-0.06,0.715-0.18c0.194-0.12,0.376-0.301,0.545-0.539l0.179,0.135
					c-0.198,0.329-0.428,0.568-0.692,0.719c-0.264,0.149-0.572,0.225-0.926,0.225C51.226,31.377,50.882,31.279,50.6,31.085z
					 M52.254,27.746c-0.156-0.277-0.393-0.414-0.709-0.414c-0.181,0-0.343,0.07-0.486,0.211c-0.145,0.141-0.257,0.334-0.337,0.58
					c-0.081,0.246-0.122,0.521-0.122,0.827h1.888C52.487,28.422,52.41,28.021,52.254,27.746z"/>
				<path fill="#C6110C" d="M56.832,27.461c-0.084-0.146-0.252-0.219-0.504-0.219h-0.09v-0.18h0.72c0.228,0,0.399,0.031,0.517,0.094
					s0.199,0.166,0.247,0.311h0.045c0.108-0.139,0.253-0.256,0.437-0.352c0.183-0.096,0.396-0.143,0.643-0.143
					c0.239,0,0.419,0.045,0.54,0.135c0.101,0.077,0.206,0.212,0.314,0.404l-0.36,0.27c-0.066-0.09-0.162-0.158-0.288-0.203
					c-0.126-0.044-0.27-0.066-0.431-0.066c-0.181,0-0.345,0.04-0.495,0.121s-0.27,0.19-0.359,0.328v3.326h-0.809v-3.146
					C56.958,27.835,56.915,27.609,56.832,27.461z"/>
				<path fill="#C6110C" d="M62.974,27.461c-0.084-0.146-0.252-0.219-0.504-0.219h-0.18v-0.18h0.809
					c0.222,0,0.389,0.028,0.499,0.084c0.111,0.058,0.19,0.161,0.238,0.311c0.048,0.15,0.072,0.378,0.072,0.684v3.146h-0.81v-3.146
					C63.099,27.835,63.057,27.609,62.974,27.461z M63.086,26.352c-0.099-0.113-0.148-0.249-0.148-0.404
					c0-0.126,0.037-0.225,0.112-0.297s0.175-0.107,0.301-0.107c0.139,0,0.257,0.057,0.355,0.171
					c0.099,0.113,0.149,0.249,0.149,0.403c0,0.127-0.038,0.226-0.114,0.297c-0.075,0.072-0.175,0.108-0.301,0.108
					C63.303,26.522,63.186,26.466,63.086,26.352z"/>
				<path fill="#C6110C" d="M68.298,31.085c-0.282-0.194-0.495-0.458-0.639-0.791s-0.216-0.706-0.216-1.119
					c0-0.407,0.072-0.779,0.216-1.115c0.144-0.335,0.353-0.601,0.624-0.796c0.272-0.194,0.593-0.291,0.958-0.291
					c0.605,0,1.057,0.168,1.353,0.508c0.297,0.338,0.445,0.828,0.445,1.47l-0.019,0.359h-2.723c0,0.503,0.107,0.913,0.323,1.231
					c0.215,0.317,0.512,0.477,0.889,0.477c0.283,0,0.521-0.06,0.715-0.18c0.195-0.12,0.377-0.301,0.545-0.539l0.18,0.135
					c-0.197,0.329-0.429,0.568-0.692,0.719c-0.264,0.149-0.572,0.225-0.926,0.225C68.924,31.377,68.579,31.279,68.298,31.085z
					 M69.951,27.746c-0.155-0.277-0.393-0.414-0.71-0.414c-0.18,0-0.342,0.07-0.485,0.211s-0.256,0.334-0.337,0.58
					c-0.082,0.246-0.121,0.521-0.121,0.827h1.888C70.186,28.422,70.107,28.021,69.951,27.746z"/>
			</g>
			<g>
				<path fill="#C6110C" d="M32.729,0.369c-0.757,0-1.136,0.349-1.136,1.046h-0.182V0.732c0-0.484,0.257-0.727,0.772-0.727h4.225
					v0.363h-2.045v5.633h-0.817V0.369H32.729z"/>
				<path fill="#C6110C" d="M39.17,0.41c-0.085-0.148-0.255-0.223-0.509-0.223h-0.182V0.006h0.817c0.225,0,0.393,0.029,0.504,0.086
					c0.112,0.059,0.192,0.162,0.241,0.314c0.048,0.151,0.073,0.381,0.073,0.689v1.637h2.725V0.006h0.818v4.906
					c0,0.309,0.042,0.537,0.127,0.686s0.254,0.223,0.509,0.223h0.182v0.182h-0.817c-0.225,0-0.393-0.028-0.505-0.086
					c-0.111-0.058-0.192-0.162-0.24-0.313c-0.049-0.152-0.073-0.383-0.073-0.691V3.096h-2.725v2.906h-0.818V1.096
					C39.297,0.787,39.254,0.559,39.17,0.41z"/>
				<path fill="#C6110C" d="M47.282,0.41c-0.084-0.148-0.254-0.223-0.509-0.223h-0.182V0.006h3.87c0.515,0,0.773,0.242,0.773,0.727
					v0.683h-0.183c0-0.697-0.378-1.046-1.135-1.046h-1.69v2.363h2.453v0.363h-2.453v2.543h1.59c0.418,0,0.745-0.075,0.981-0.227
					c0.235-0.151,0.424-0.408,0.563-0.772l0.182,0.046l-0.318,0.863c-0.109,0.303-0.336,0.453-0.682,0.453H47.41V1.096
					C47.41,0.787,47.367,0.559,47.282,0.41z"/>
			</g>
		</g>
	</g>
</g>
</svg>
